HIERARCHY
ROOT joint_Root
{
	OFFSET 0.0 0.0 0.0
	CHANNELS 6 Xposition Yposition Zposition Zrotation Xrotation Yrotation 
	JOINT Hips
	{
		OFFSET -0.726466 93.3139 -2.00062
		CHANNELS 6 Xposition Yposition Zposition Zrotation Xrotation Yrotation 
		JOINT Spine
		{
			OFFSET 15.7357 0.0 0.0
			CHANNELS 6 Xposition Yposition Zposition Zrotation Xrotation Yrotation 
			JOINT Chest
			{
				OFFSET 8.98455 -0.406207 0.0
				CHANNELS 6 Xposition Yposition Zposition Zrotation Xrotation Yrotation 
				JOINT Neck
				{
					OFFSET 16.3773 0.0 0.0
					CHANNELS 6 Xposition Yposition Zposition Zrotation Xrotation Yrotation 
					JOINT Head
					{
						OFFSET 6.45672 0.0 0.0
						CHANNELS 6 Xposition Yposition Zposition Zrotation Xrotation Yrotation 
						End Site
						{
							OFFSET 0.0 0.0 0.0
						}
					}
				}
				JOINT Shoulder_L
				{
					OFFSET 12.9942 -0.242716 4.98039
					CHANNELS 6 Xposition Yposition Zposition Zrotation Xrotation Yrotation 
					JOINT UpperArm_L
					{
						OFFSET 5.34809 0.0 0.0
						CHANNELS 6 Xposition Yposition Zposition Zrotation Xrotation Yrotation 
						JOINT LowerArm_L
						{
							OFFSET 24.3286 1.87007e-05 0.0
							CHANNELS 6 Xposition Yposition Zposition Zrotation Xrotation Yrotation 
							JOINT Hand_L
							{
								OFFSET 22.2916 0.0 0.0
								CHANNELS 6 Xposition Yposition Zposition Zrotation Xrotation Yrotation 
								End Site
								{
									OFFSET 0.0 0.0 0.0
								}
							}
						}
					}
				}
				JOINT Shoulder_R
				{
					OFFSET 12.9945 -0.242716 -4.98039
					CHANNELS 6 Xposition Yposition Zposition Zrotation Xrotation Yrotation 
					JOINT UpperArm_R
					{
						OFFSET -5.34813 0.0 0.0
						CHANNELS 6 Xposition Yposition Zposition Zrotation Xrotation Yrotation 
						JOINT LowerArm_R
						{
							OFFSET -24.3289 0.000322201 0.0
							CHANNELS 6 Xposition Yposition Zposition Zrotation Xrotation Yrotation 
							JOINT Hand_R
							{
								OFFSET -22.2915 -0.000108084 0.0
								CHANNELS 6 Xposition Yposition Zposition Zrotation Xrotation Yrotation 
								End Site
								{
									OFFSET 0.0 0.0 0.0
								}
							}
						}
					}
				}
			}
		}
		JOINT UpperLeg_L
		{
			OFFSET -2.19248 -6.46944 0.0
			CHANNELS 6 Xposition Yposition Zposition Zrotation Xrotation Yrotation 
			JOINT LowerLeg_L
			{
				OFFSET 39.0811 0.0 -1.23785e-05
				CHANNELS 6 Xposition Yposition Zposition Zrotation Xrotation Yrotation 
				JOINT Foot_L
				{
					OFFSET 40.9854 0.0 -1.26872e-05
					CHANNELS 6 Xposition Yposition Zposition Zrotation Xrotation Yrotation 
					JOINT Toes_L
					{
						OFFSET 11.7543 0.0 0.0
						CHANNELS 6 Xposition Yposition Zposition Zrotation Xrotation Yrotation 
						End Site
						{
							OFFSET 0.0 0.0 0.0
						}
					}
				}
			}
		}
		JOINT UpperLeg_R
		{
			OFFSET -2.19251 6.46944 0.0
			CHANNELS 6 Xposition Yposition Zposition Zrotation Xrotation Yrotation 
			JOINT LowerLeg_R
			{
				OFFSET -39.0811 -0.00228153 -0.0401928
				CHANNELS 6 Xposition Yposition Zposition Zrotation Xrotation Yrotation 
				JOINT Foot_R
				{
					OFFSET -40.9854 0.0 0.0
					CHANNELS 6 Xposition Yposition Zposition Zrotation Xrotation Yrotation 
					JOINT Toes_R
					{
						OFFSET -11.7543 0.0 0.0
						CHANNELS 6 Xposition Yposition Zposition Zrotation Xrotation Yrotation 
						End Site
						{
							OFFSET 0.0 0.0 0.0
						}
					}
				}
			}
		}
	}
}
MOTION
Frames:	9
Frame Time:	0.0333333
0.000000 0.000000 0.000000 0.000000 0.000000 -0.000000 -1.098110 92.142300 -2.472030 87.696200 -1.469890 4.460680 15.735700 0.000005 -0.000001 85.717100 87.223500 -85.099400 8.984550 -0.406207 -0.000000 -2.225790 -0.468427 1.226350 16.377300 -0.000001 -0.000001 -3.356450 -3.452650 2.258690 6.456720 -0.000001 -0.000000 1.001890 -2.535420 -0.965776 12.994200 -0.242716 4.980390 -85.867200 -10.036700 -67.481200 5.348090 -0.000007 -0.000001 -58.701800 -49.156300 -89.723600 24.328600 0.000019 0.000005 6.650500 2.861610 -66.820600 22.291600 -0.000001 0.000005 17.798100 5.590160 -10.771100 12.994500 -0.242716 -4.980390 91.683200 -3.976280 -67.034300 -5.348130 -0.000001 -0.000004 -47.821300 -46.291600 -99.705800 -24.328900 0.000322 -0.000009 8.506210 6.140850 -54.430000 -22.291500 -0.000108 -0.000004 21.359500 5.521750 -7.436980 -2.192480 -6.469440 -0.000000 -168.867000 -14.961400 -1.632410 39.081100 -0.000007 -0.000012 -0.174435 0.446165 21.353900 40.985400 -0.000006 -0.000013 -5.727420 3.529600 -63.469700 11.754300 -0.000000 0.000003 -0.000032 -0.000388 -16.592700 -2.192510 6.469440 -0.000001 174.830000 19.179700 179.657000 -39.081100 -0.002282 -0.040193 -0.009457 0.035580 19.756700 -40.985400 0.000008 0.000006 -1.737650 2.102380 -63.219200 -11.754300 -0.000006 -0.000006 -0.007754 -0.086013 -20.075400
0.000000 0.000000 0.000000 0.000000 0.000000 -0.000000 -1.108810 92.133400 -2.522200 87.680800 -1.443620 4.424080 15.735700 0.000005 -0.000001 85.596100 87.228600 -84.977200 8.984550 -0.406207 -0.000000 -2.236760 -0.479501 1.228370 16.377300 -0.000001 -0.000001 -3.351270 -3.446620 2.244120 6.456720 -0.000001 -0.000000 1.020510 -2.564760 -0.949106 12.994200 -0.242716 4.980390 -85.862500 -10.048400 -67.481100 5.348090 -0.000007 -0.000001 -58.737500 -49.168700 -89.675000 24.328600 0.000019 0.000005 6.611500 2.840650 -66.849900 22.291600 -0.000001 0.000005 17.744700 5.590900 -10.812900 12.994500 -0.242716 -4.980390 91.674100 -3.940010 -66.956700 -5.348130 -0.000001 -0.000004 -47.786900 -46.316500 -99.623700 -24.328900 0.000322 -0.000009 8.488930 6.124950 -54.444100 -22.291500 -0.000108 -0.000004 21.333500 5.521000 -7.404570 -2.192480 -6.469440 -0.000000 -168.873000 -14.878600 -1.771260 39.081100 -0.000007 -0.000012 -0.175239 0.445909 21.454700 40.985400 -0.000006 -0.000013 -5.739980 3.472130 -63.482200 11.754300 -0.000000 0.000003 -0.000024 -0.000299 -16.589200 -2.192510 6.469440 -0.000001 174.859000 19.125200 179.584000 -39.081100 -0.002282 -0.040193 -0.014102 0.048447 19.780600 -40.985400 0.000008 0.000006 -1.914740 2.105050 -63.204300 -11.754300 -0.000006 -0.000006 -0.007602 -0.084753 -20.023900
0.000000 0.000000 0.000000 0.000000 0.000000 -0.000000 -1.112230 92.135100 -2.551710 87.691900 -1.466290 4.486190 15.735700 0.000005 -0.000001 85.618500 87.200900 -85.009400 8.984550 -0.406207 -0.000000 -2.181440 -0.480420 1.208900 16.377300 -0.000001 -0.000001 -3.320220 -3.442620 2.252660 6.456720 -0.000001 -0.000000 1.034020 -2.569220 -0.946447 12.994200 -0.242716 4.980390 -85.861400 -10.032700 -67.444400 5.348090 -0.000007 -0.000001 -58.619300 -49.229600 -89.538300 24.328600 0.000019 0.000005 6.568960 2.826730 -66.816600 22.291600 -0.000001 0.000005 17.795000 5.591780 -10.862800 12.994500 -0.242716 -4.980390 91.671700 -3.934480 -66.958200 -5.348130 -0.000001 -0.000004 -47.608300 -46.411300 -99.338700 -24.328900 0.000322 -0.000009 8.536580 6.131820 -54.567700 -22.291500 -0.000108 -0.000004 21.496700 5.522370 -7.463320 -2.192480 -6.469440 -0.000000 -168.865000 -14.950300 -1.719710 39.081100 -0.000007 -0.000012 -0.174963 0.445269 21.452000 40.985400 -0.000006 -0.000013 -5.730130 3.488000 -63.456700 11.754300 -0.000000 0.000003 -0.000035 -0.000411 -16.593600 -2.192510 6.469440 -0.000001 174.841000 19.131500 179.606000 -39.081100 -0.002282 -0.040193 -0.014271 0.048837 19.810700 -40.985400 0.000008 0.000006 -1.881030 2.110160 -63.196000 -11.754300 -0.000006 -0.000006 -0.007505 -0.083946 -19.991000
0.000000 0.000000 0.000000 0.000000 0.000000 -0.000000 -1.140860 92.136900 -2.586460 87.677900 -1.474290 4.463570 15.735700 0.000005 -0.000001 85.817600 87.197400 -85.212800 8.984550 -0.406207 -0.000000 -2.173030 -0.461127 1.200610 16.377300 -0.000001 -0.000001 -3.311600 -3.437030 2.229210 6.456720 -0.000001 -0.000000 1.064340 -2.567170 -0.896192 12.994200 -0.242716 4.980390 -85.866700 -10.012400 -67.429700 5.348090 -0.000007 -0.000001 -58.408100 -49.331700 -89.330900 24.328600 0.000019 0.000005 6.499190 2.798320 -66.802500 22.291600 -0.000001 0.000005 17.711000 5.589680 -10.743600 12.994500 -0.242716 -4.980390 91.671600 -3.925020 -66.908900 -5.348130 -0.000001 -0.000004 -47.463100 -46.502700 -99.053600 -24.328900 0.000322 -0.000009 8.515600 6.091350 -54.678600 -22.291500 -0.000108 -0.000004 21.465500 5.524550 -7.557200 -2.192480 -6.469440 -0.000000 -168.841000 -14.936100 -1.758630 39.081100 -0.000007 -0.000012 -0.174667 0.444819 21.438700 40.985400 -0.000006 -0.000013 -5.742740 3.517520 -63.425400 11.754300 -0.000000 0.000003 -0.000025 -0.000304 -16.589400 -2.192510 6.469440 -0.000001 174.894000 19.123700 179.547000 -39.081100 -0.002282 -0.040193 -0.012622 0.044226 19.824200 -40.985400 0.000008 0.000006 -1.857340 2.087760 -63.184400 -11.754300 -0.000006 -0.000006 -0.007788 -0.086290 -20.086700
0.000000 0.000000 0.000000 0.000000 0.000000 -0.000000 -1.156830 92.141500 -2.616900 87.679200 -1.481040 4.509080 15.735700 0.000005 -0.000001 85.725400 87.180800 -85.117200 8.984550 -0.406207 -0.000000 -2.140480 -0.472709 1.207400 16.377300 -0.000001 -0.000001 -3.241650 -3.409710 2.243240 6.456720 -0.000001 -0.000000 1.096390 -2.517480 -0.983379 12.994200 -0.242716 4.980390 -85.861500 -9.996770 -67.372700 5.348090 -0.000007 -0.000001 -58.171000 -49.357800 -88.947700 24.328600 0.000019 0.000005 6.434360 2.761090 -66.870400 22.291600 -0.000001 0.000005 17.522700 5.587200 -10.605300 12.994500 -0.242716 -4.980390 91.666800 -3.906490 -66.871500 -5.348130 -0.000001 -0.000004 -47.233500 -46.515500 -98.852000 -24.328900 0.000322 -0.000009 8.493280 6.072160 -54.691600 -22.291500 -0.000108 -0.000004 21.326900 5.522610 -7.473910 -2.192480 -6.469440 -0.000000 -168.815000 -14.943500 -1.711730 39.081100 -0.000007 -0.000012 -0.175048 0.446737 21.397300 40.985400 -0.000006 -0.000013 -5.759350 3.506510 -63.378400 11.754300 -0.000000 0.000003 -0.000027 -0.000335 -16.590600 -2.192510 6.469440 -0.000001 174.890000 19.164900 179.576000 -39.081100 -0.002282 -0.040193 -0.012805 0.044738 19.823000 -40.985400 0.000008 0.000006 -1.807990 2.132460 -63.168800 -11.754300 -0.000006 -0.000006 -0.007812 -0.086489 -20.094800
0.000000 0.000000 0.000000 0.000000 0.000000 -0.000000 -1.179750 92.150900 -2.652900 87.663500 -1.496590 4.480920 15.735700 0.000005 -0.000001 85.816100 87.178700 -85.202100 8.984550 -0.406207 -0.000000 -2.135660 -0.464595 1.219180 16.377300 -0.000001 -0.000001 -3.180310 -3.383900 2.244320 6.456720 -0.000001 -0.000000 1.121530 -2.470130 -0.999429 12.994200 -0.242716 4.980390 -85.867900 -9.956030 -67.321800 5.348090 -0.000007 -0.000001 -57.724000 -49.308400 -88.401400 24.328600 0.000019 0.000005 6.172380 2.641170 -66.921400 22.291600 -0.000001 0.000005 17.571400 5.588490 -10.676900 12.994500 -0.242716 -4.980390 91.656100 -3.866280 -66.791000 -5.348130 -0.000001 -0.000004 -46.950300 -46.415500 -98.626000 -24.328900 0.000322 -0.000009 8.431580 6.033910 -54.661800 -22.291500 -0.000108 -0.000004 21.405800 5.521560 -7.428860 -2.192480 -6.469440 -0.000000 -168.799000 -14.964200 -1.741260 39.081100 -0.000007 -0.000012 -0.173209 0.443231 21.345100 40.985400 -0.000006 -0.000013 -5.768180 3.509550 -63.320000 11.754300 -0.000000 0.000003 -0.000028 -0.000341 -16.590900 -2.192510 6.469440 -0.000001 174.954000 19.109300 179.534000 -39.081100 -0.002282 -0.040193 -0.012719 0.044623 19.772900 -40.985400 0.000008 0.000006 -1.795450 2.075400 -63.120600 -11.754300 -0.000006 -0.000006 -0.007614 -0.084851 -20.027900
0.000000 0.000000 0.000000 0.000000 0.000000 -0.000000 -1.194460 92.146700 -2.691940 87.647500 -1.524760 4.494550 15.735700 0.000005 -0.000001 86.111300 87.156700 -85.493100 8.984550 -0.406207 -0.000000 -2.089970 -0.438694 1.228180 16.377300 -0.000001 -0.000001 -3.113710 -3.382610 2.274490 6.456720 -0.000001 -0.000000 1.100450 -2.503580 -1.029570 12.994200 -0.242716 4.980390 -85.884800 -9.910070 -67.312300 5.348090 -0.000007 -0.000001 -57.119600 -49.146100 -87.510600 24.328600 0.000019 0.000005 5.677650 2.387020 -67.269900 22.291600 -0.000001 0.000005 17.329000 5.585900 -10.533100 12.994500 -0.242716 -4.980390 91.632200 -3.805140 -66.762300 -5.348130 -0.000001 -0.000004 -46.423900 -46.270800 -98.070200 -24.328900 0.000322 -0.000009 8.521010 6.031010 -54.963600 -22.291500 -0.000108 -0.000004 21.488100 5.512370 -7.040200 -2.192480 -6.469440 -0.000000 -168.765000 -14.997100 -1.759790 39.081100 -0.000007 -0.000012 -0.173550 0.443126 21.387900 40.985400 -0.000006 -0.000013 -5.778010 3.508850 -63.320200 11.754300 -0.000000 0.000003 -0.000026 -0.000318 -16.590000 -2.192510 6.469440 -0.000001 174.986000 19.076000 179.503000 -39.081100 -0.002282 -0.040193 -0.013707 0.047262 19.814600 -40.985400 0.000008 0.000006 -1.793860 2.094230 -63.126100 -11.754300 -0.000006 -0.000006 -0.007586 -0.084619 -20.018400
0.000000 0.000000 0.000000 0.000000 0.000000 -0.000000 -1.203500 92.150600 -2.741540 87.680800 -1.563320 4.498130 15.735700 0.000005 -0.000001 86.535800 87.124000 -85.926400 8.984550 -0.406207 -0.000000 -2.022140 -0.399515 1.211550 16.377300 -0.000001 -0.000001 -3.055210 -3.404760 2.272430 6.456720 -0.000001 -0.000000 1.059330 -2.510040 -1.016110 12.994200 -0.242716 4.980390 -85.895100 -9.875280 -67.292700 5.348090 -0.000007 -0.000001 -56.217800 -48.767000 -86.107900 24.328600 0.000019 0.000005 5.005520 2.036840 -67.912900 22.291600 -0.000001 0.000005 17.150800 5.585400 -10.505800 12.994500 -0.242716 -4.980390 91.592200 -3.713390 -66.771200 -5.348130 -0.000001 -0.000004 -45.721200 -46.039400 -97.179700 -24.328900 0.000322 -0.000009 8.549260 5.908080 -55.604100 -22.291500 -0.000108 -0.000004 21.442100 5.502950 -6.652450 -2.192480 -6.469440 -0.000000 -168.807000 -14.986000 -1.771720 39.081100 -0.000007 -0.000012 -0.172593 0.441465 21.353500 40.985400 -0.000006 -0.000013 -5.776760 3.488260 -63.273000 11.754300 -0.000000 0.000003 -0.000024 -0.000297 -16.589200 -2.192510 6.469440 -0.000001 174.952000 19.065900 179.461000 -39.081100 -0.002282 -0.040193 -0.015775 0.053023 19.807500 -40.985400 0.000008 0.000006 -1.932110 2.128380 -63.066400 -11.754300 -0.000006 -0.000006 -0.007653 -0.085174 -20.041100
0.000000 0.000000 0.000000 0.000000 0.000000 -0.000000 -1.211930 92.152500 -2.808650 87.680900 -1.545320 4.537180 15.735700 0.000005 -0.000001 86.990900 87.076000 -86.369100 8.984550 -0.406207 -0.000000 -1.923810 -0.359469 1.237370 16.377300 -0.000001 -0.000001 -3.006600 -3.456010 2.306680 6.456720 -0.000001 -0.000000 1.006150 -2.565650 -1.127300 12.994200 -0.242716 4.980390 -85.979400 -9.717220 -67.391300 5.348090 -0.000007 -0.000001 -54.504500 -48.206500 -83.861000 24.328600 0.000019 0.000005 4.313360 1.661080 -68.977300 22.291600 -0.000001 0.000005 16.864200 5.584420 -10.451500 12.994500 -0.242716 -4.980390 91.513700 -3.527290 -66.755500 -5.348130 -0.000001 -0.000004 -44.648200 -45.645000 -95.848400 -24.328900 0.000322 -0.000009 8.287500 5.517100 -56.577600 -22.291500 -0.000108 -0.000004 20.899800 5.495680 -6.360340 -2.192480 -6.469440 -0.000000 -168.818000 -14.923600 -1.806410 39.081100 -0.000007 -0.000012 -0.172097 0.439651 21.377500 40.985400 -0.000006 -0.000013 -5.776390 3.436990 -63.235100 11.754300 -0.000000 0.000003 -0.000030 -0.000364 -16.591800 -2.192510 6.469440 -0.000001 174.973000 19.066600 179.428000 -39.081100 -0.002282 -0.040193 -0.015614 0.052410 19.864700 -40.985400 0.000008 0.000006 -1.820470 2.084530 -63.065200 -11.754300 -0.000006 -0.000006 -0.007525 -0.084114 -19.997800
